Coordinates
version=1
nRows=16
nColumns=63
inDegrees=yes

Units are S.I. units (second, meters, Newtons, ...)
If the header above contains a line with 'inDegrees', this indicates whether rotational values are in degrees (yes) or radians (no).

endheader
time	pelvis_tilt	pelvis_list	pelvis_rotation	pelvis_tx	pelvis_ty	pelvis_tz	hip_flexion_r	hip_adduction_r	hip_rotation_r	knee_angle_r	knee_angle_r_beta	ankle_angle_r	subtalar_angle_r	mtp_angle_r	hip_flexion_l	hip_adduction_l	hip_rotation_l	knee_angle_l	knee_angle_l_beta	ankle_angle_l	subtalar_angle_l	mtp_angle_l	L5_S1_Flex_Ext	L5_S1_Lat_Bending	L5_S1_axial_rotation	L4_L5_Flex_Ext	L4_L5_Lat_Bending	L4_L5_axial_rotation	L3_L4_Flex_Ext	L3_L4_Lat_Bending	L3_L4_axial_rotation	L2_L3_Flex_Ext	L2_L3_Lat_Bending	L2_L3_axial_rotation	L1_L2_Flex_Ext	L1_L2_Lat_Bending	L1_L2_axial_rotation	L1_T12_Flex_Ext	L1_T12_Lat_Bending	L1_T12_axial_rotation	Abs_r3	Abs_r2	Abs_r1	Abs_t1	Abs_t2	neck_flexion	neck_bending	neck_rotation	arm_flex_r	arm_add_r	arm_rot_r	elbow_flex_r	pro_sup_r	wrist_flex_r	wrist_dev_r	arm_flex_l	arm_add_l	arm_rot_l	elbow_flex_l	pro_sup_l	wrist_flex_l	wrist_dev_l
4.244898	5.422697	-8.075100	91.114552	0.218193	0.737919	0.742986	19.278474	4.195403	9.531101	12.098653	0.211161	10.858614	-16.376500	0.000000	11.964684	-1.514642	-3.198681	1.204346	0.021020	22.304537	-6.580699	0.000000	0.026407	0.506091	1.262495	0.049041	0.673100	1.341401	0.043385	1.230509	1.341401	0.030181	1.230509	1.104683	0.024522	1.032020	1.025777	0.015089	0.783934	0.946871	0.188626	5.724998	7.021619	0.000000	0.000000	16.488774	-3.009161	-1.957366	9.094579	-18.201897	45.306947	62.794835	38.035887	-0.102029	17.899568	18.720365	-12.396428	38.919735	60.428820	81.842472	-5.550965	0.077295
4.265306	5.622620	-8.153660	91.539044	0.218671	0.737542	0.744028	19.069195	4.318809	9.048479	11.527122	0.201186	10.272744	-16.610130	0.000000	12.151256	-1.709350	-3.360442	1.174230	0.020494	22.036460	-6.271610	0.000000	0.033120	0.485322	1.229232	0.061506	0.645479	1.306059	0.054412	1.180013	1.306059	0.037852	1.180013	1.075578	0.030755	0.989669	0.998751	0.018925	0.751764	0.921924	0.236570	5.490062	6.836619	0.000000	0.000000	17.990900	-2.832371	-1.897217	10.005272	-17.923261	46.752277	60.487267	40.332353	1.202801	16.195659	18.359359	-12.423158	39.907719	59.337076	83.246075	-5.134902	-0.419071
4.285714	5.842972	-8.139974	92.104888	0.218796	0.737182	0.744850	18.689397	4.420842	8.571174	10.838141	0.189161	9.841268	-16.801035	0.000000	12.275225	-1.896938	-3.403892	1.171195	0.020441	21.952886	-5.812402	0.000000	0.037367	0.473387	1.134465	0.069395	0.629605	1.205369	0.061391	1.150993	1.205369	0.042707	1.150993	0.992657	0.034699	0.965331	0.921753	0.021352	0.733276	0.850849	0.266911	5.355048	6.309555	0.000000	0.000000	19.240899	-2.654726	-1.676556	11.042333	-17.792603	48.026309	58.628880	43.587224	2.669135	14.862052	17.737903	-12.630050	40.353192	58.748864	84.445464	-4.699391	-0.900129
4.306122	6.088226	-8.039195	92.791644	0.218564	0.736858	0.745537	18.168078	4.512456	8.082967	10.058796	0.175559	9.561168	-16.910609	0.000000	12.336290	-2.082218	-3.283928	1.174505	0.020499	22.028225	-5.296043	0.000000	0.038462	0.472610	0.983103	0.071428	0.628572	1.044547	0.063189	1.149105	1.044547	0.043958	1.149105	0.860215	0.035716	0.963747	0.798771	0.021977	0.732073	0.737327	0.274731	5.346262	5.467724	0.000000	0.000000	20.215053	-2.502583	-1.312518	12.199032	-17.820923	49.192147	57.069599	47.610900	3.866186	13.845678	16.863784	-13.007044	40.282610	58.604024	85.275257	-4.455513	-1.396372
4.326531	6.371108	-7.867562	93.611939	0.217940	0.736558	0.746110	17.539243	4.606254	7.558486	9.214898	0.160830	9.400506	-16.957631	0.000000	12.355425	-2.275413	-3.056565	1.185444	0.020690	22.263747	-4.629665	0.000000	0.038704	0.484838	0.786083	0.071877	0.644835	0.835213	0.063586	1.178836	0.835213	0.044234	1.178836	0.687822	0.035940	0.988683	0.638692	0.022115	0.751015	0.589562	0.276456	5.484590	4.371956	0.000000	0.000000	20.925587	-2.359111	-0.910440	13.316428	-17.963532	49.825411	55.722959	52.545231	4.569416	13.177796	15.783098	-13.501927	39.696085	58.790233	85.839934	-4.470502	-1.879603
4.346939	6.698444	-7.624553	94.580133	0.216905	0.736303	0.746604	16.823754	4.709661	6.966319	8.344130	0.145633	9.310484	-16.959608	0.000000	12.330082	-2.481839	-2.604121	1.196522	0.020883	22.577256	-3.980786	0.000000	0.037198	0.511214	0.554942	0.069081	0.679915	0.589626	0.061113	1.242966	0.589626	0.042514	1.242966	0.485574	0.034542	1.042468	0.450890	0.021255	0.791871	0.416206	0.265702	5.782958	3.086420	0.000000	0.000000	21.402418	-2.188350	-0.543310	14.365019	-18.226030	49.982375	54.439488	57.544852	4.558360	12.662582	14.606942	-14.079916	38.695870	59.136486	86.219215	-4.860750	-2.388010
4.367347	7.073734	-7.322033	95.652815	0.215516	0.736106	0.746996	16.057916	4.841354	6.329825	7.492497	0.130769	9.216208	-16.960960	0.000000	12.253251	-2.705466	-1.760897	1.189014	0.020752	22.836283	-3.683151	0.000000	0.034505	0.552409	0.314159	0.064079	0.734704	0.333794	0.056688	1.343127	0.333794	0.039436	1.343127	0.274890	0.032041	1.126472	0.255255	0.019716	0.855681	0.235620	0.246466	6.248959	1.747261	0.000000	0.000000	21.707440	-2.027362	-0.327963	15.242854	-18.588412	49.419660	53.112177	62.313276	3.839994	12.287795	13.425235	-14.676352	37.364692	59.470042	86.584597	-5.760213	-3.035355
4.387755	7.476937	-6.976088	96.806580	0.213860	0.735975	0.747312	15.277449	4.986363	5.647154	6.697789	0.116898	9.094706	-16.962242	0.000000	12.141032	-2.932898	-0.693010	1.177080	0.020544	23.023602	-3.554344	0.000000	0.029927	0.604968	0.072416	0.055577	0.804608	0.076942	0.049167	1.470920	0.076942	0.034203	1.470920	0.063364	0.027790	1.233651	0.058838	0.017100	0.937096	0.054312	0.213764	6.843522	0.402758	0.000000	0.000000	21.906591	-1.815826	-0.231461	15.976893	-19.024431	48.275395	51.568270	66.770509	2.428208	11.996363	12.295044	-15.275904	35.717725	59.667481	86.980370	-7.119991	-3.832231
4.408163	7.895951	-6.625013	97.995041	0.212051	0.735892	0.747608	14.548001	5.140084	4.883924	6.000582	0.104730	8.901339	-16.964934	0.000000	12.032241	-3.155709	0.519242	1.173124	0.020475	23.094338	-3.616916	0.000000	0.025609	0.666264	-0.157645	0.047558	0.886131	-0.167498	0.042073	1.619955	-0.167498	0.029269	1.619955	-0.137939	0.023780	1.358646	-0.128087	0.014633	1.032043	-0.118234	0.182922	7.536914	-0.876775	0.000000	0.000000	22.045574	-1.561076	-0.239093	16.605039	-19.526107	46.815019	49.727852	71.027313	0.444722	11.874473	11.289086	-15.870211	33.845652	59.657169	87.394147	-8.839047	-4.693731
4.428571	8.283818	-6.285417	99.122679	0.210331	0.735854	0.747891	13.915293	5.289996	4.173571	5.461737	0.095325	8.700883	-17.009246	0.000000	11.925027	-3.346582	1.767884	1.174928	0.020506	23.048159	-3.879750	0.000000	0.020539	0.727961	-0.354204	0.038144	0.968189	-0.376342	0.033744	1.769965	-0.376342	0.023474	1.769965	-0.309928	0.019073	1.484459	-0.287791	0.011736	1.127612	-0.265653	0.146710	8.234845	-1.969976	0.000000	0.000000	22.153784	-1.275657	-0.404819	17.192289	-20.052373	45.449501	47.575682	75.058215	-1.816524	11.813556	10.525358	-16.454447	31.969038	59.377372	87.978790	-10.968551	-5.719554
4.448980	8.634210	-5.979860	100.158670	0.208782	0.735859	0.748184	13.416659	5.433537	3.480910	5.097445	0.088967	8.496607	-17.081964	0.000000	11.843520	-3.507678	2.926660	1.189462	0.020760	22.922350	-4.220364	0.000000	0.016372	0.789358	-0.517238	0.030405	1.049847	-0.549565	0.026898	1.919246	-0.549565	0.018712	1.919246	-0.452583	0.015203	1.609659	-0.420256	0.009355	1.222716	-0.387928	0.116946	8.929379	-2.876721	0.000000	0.000000	22.252359	-0.961208	-0.548223	17.797143	-20.550608	44.403202	45.219608	79.136013	-4.143693	11.797453	10.045699	-16.985508	30.200647	58.866091	88.652749	-13.329081	-6.742162
4.469388	8.924105	-5.732104	101.044819	0.207512	0.735898	0.748488	13.081500	5.558261	2.822113	4.914878	0.085781	8.309135	-17.162320	0.000000	11.795440	-3.625668	4.020723	1.201286	0.020966	22.694484	-4.776589	0.000000	0.015355	0.846643	-0.631219	0.028515	1.126036	-0.670670	0.025226	2.058528	-0.670670	0.017549	2.058528	-0.552317	0.014258	1.726475	-0.512865	0.008774	1.311450	-0.473414	0.109676	9.577398	-3.510650	0.000000	0.000000	22.381337	-0.714106	-0.719744	18.344871	-20.942735	43.531902	42.827892	83.554703	-6.266935	11.923537	9.907742	-17.392267	28.755215	58.142634	89.452632	-15.756063	-7.655095
4.489796	9.146366	-5.538764	101.771065	0.206576	0.735995	0.748803	12.897052	5.659007	2.212584	4.898368	0.085493	8.178017	-17.237664	0.000000	11.776812	-3.701632	4.996610	1.212996	0.021171	22.421263	-5.437615	0.000000	0.017448	0.897402	-0.702668	0.032403	1.193544	-0.746584	0.028666	2.181942	-0.746584	0.019942	2.181942	-0.614834	0.016203	1.829982	-0.570917	0.009970	1.390075	-0.527001	0.124632	10.151587	-3.908027	0.000000	0.000000	22.569702	-0.541837	-0.883088	18.935984	-21.185100	43.211247	40.458512	87.537090	-8.020335	11.959962	10.075721	-17.602751	27.675157	57.239174	90.198838	-17.933187	-8.333477
4.510204	9.299444	-5.411201	102.338617	0.205978	0.736128	0.749151	12.860775	5.730685	1.651686	5.013785	0.087507	8.101072	-17.297053	0.000000	11.806928	-3.734011	5.785148	1.232807	0.021517	22.137895	-6.109680	0.000000	0.025100	0.940167	-0.732758	0.046613	1.250422	-0.778555	0.041237	2.285921	-0.778555	0.028687	2.285921	-0.641163	0.023308	1.917188	-0.595366	0.014342	1.456318	-0.549568	0.179287	10.635354	-4.075379	0.000000	0.000000	22.863479	-0.521120	-1.064961	19.557407	-21.235398	43.535639	38.332716	89.684511	-9.546912	11.856236	10.570231	-17.540528	27.203744	56.139349	90.580407	-19.702778	-8.799638
4.530612	9.388173	-5.343531	102.759690	0.205749	0.736289	0.749495	12.945484	5.775763	1.148861	5.224320	0.091182	8.085506	-17.340452	0.000000	11.878710	-3.728631	6.371896	1.262670	0.022038	21.872417	-6.744243	0.000000	0.039923	0.972600	-0.723722	0.074140	1.293557	-0.768954	0.065589	2.364779	-0.768954	0.045628	2.364779	-0.633257	0.037072	1.983325	-0.588024	0.022812	1.506557	-0.542791	0.285164	11.002241	-4.025123	0.000000	0.000000	23.260882	-0.693060	-1.368940	20.166191	-21.035110	44.433655	36.632718	89.258515	-10.937887	11.477119	11.392028	-17.141109	27.522571	54.819937	90.295965	-20.965226	-9.119398
4.551020	9.400792	-5.329990	103.041184	0.205908	0.736472	0.749762	13.113178	5.778388	0.735197	5.476890	0.095590	8.146746	-17.372700	0.000000	11.978928	-3.675074	6.738916	1.302723	0.022737	21.621681	-7.308470	0.000000	0.063002	0.991208	-0.681920	0.117002	1.318307	-0.724540	0.103507	2.410023	-0.724540	0.072005	2.410023	-0.596680	0.058504	2.021271	-0.554060	0.036000	1.535381	-0.511440	0.450020	11.212743	-3.792633	0.000000	0.000000	23.756506	-1.053121	-1.821186	20.722475	-20.545552	45.747482	35.467681	86.218306	-12.189539	10.887285	12.469446	-16.389043	28.560347	53.318526	89.347251	-21.596769	-9.249678
